<svg width="100" height="100" viewBox="0 0 100 100" fill="none" xmlns="http://www.w3.org/2000/svg">
<path d="M87.4659 99.9986H84.0048C84.0048 99.91 84.0827 99.9046 84.1358 99.8777C84.584 99.6531 84.7057 99.1874 84.4227 98.7686C84.1397 98.3498 83.8415 97.9415 83.5604 97.5207C83.4045 97.2868 83.4045 97.2778 83.6349 97.105C84.7501 96.2631 84.9037 94.7465 83.9623 93.7202C83.7666 93.5016 83.5278 93.326 83.2609 93.2044C82.994 93.0828 82.7049 93.0178 82.4116 93.0136C81.9049 92.9995 81.4008 93.0077 80.8956 93.0116C80.4325 93.0151 80.1324 93.3166 80.132 93.7826C80.1297 95.5779 80.1297 97.3735 80.132 99.1691C80.132 99.485 80.2634 99.7151 80.5358 99.871C80.5877 99.9007 80.6649 99.91 80.6625 99.9986C80.4809 99.9986 80.2996 99.9947 80.1168 99.9986C80.0497 100.001 80.0248 99.9876 80.0388 99.9206C80.0418 99.8883 80.0418 99.8558 80.0388 99.8235C80.0388 93.29 80.0374 86.7567 80.0345 80.2236C80.0345 80.0621 80.0712 80.036 80.2252 80.0364C86.7561 80.0411 93.287 80.0411 99.8179 80.0364C99.9715 80.0364 99.9926 80.0801 99.9922 80.2189C99.9878 83.233 99.9867 86.2469 99.9891 89.2606C99.983 89.2629 99.9766 89.264 99.9701 89.2638C99.9637 89.2636 99.9573 89.2621 99.9514 89.2593C99.9456 89.2566 99.9403 89.2527 99.936 89.2479C99.9317 89.2431 99.9284 89.2374 99.9263 89.2313C99.8401 88.9735 99.639 88.8047 99.4585 88.6218C98.484 87.6449 97.4907 86.6837 96.5349 85.6889C94.9624 84.0534 93.3182 82.4912 91.7453 80.8534C90.89 79.9642 89.3885 79.8317 88.3746 80.8534C87.325 81.9117 86.2713 82.9664 85.2136 84.0175L80.4579 88.775C80.3187 88.9139 80.1897 89.0582 80.146 89.2578C80.1142 89.3983 80.1249 89.5451 80.1769 89.6794C80.2288 89.8137 80.3196 89.9295 80.4376 90.012C80.5562 90.0989 80.699 90.1468 80.846 90.1489C80.9931 90.151 81.1371 90.1072 81.2582 90.0237C81.3377 89.9677 81.4115 89.904 81.4784 89.8334C81.6117 89.7008 81.7415 89.5647 81.8791 89.4364C81.9158 89.4025 81.9571 89.3553 82.0128 89.3791C82.0686 89.4029 82.0635 89.4641 82.0678 89.5148C82.0721 89.5655 82.0701 89.6185 82.0705 89.6708C82.0705 89.9886 82.0662 90.3064 82.0705 90.6239C82.0708 90.7195 82.0899 90.8141 82.1267 90.9023C82.1635 90.9906 82.2173 91.0707 82.2851 91.1381C82.3528 91.2055 82.4332 91.2589 82.5216 91.2953C82.61 91.3316 82.7047 91.3502 82.8003 91.35C82.8958 91.3497 82.9904 91.3306 83.0786 91.2938C83.1668 91.257 83.2469 91.2031 83.3143 91.1353C83.3817 91.0676 83.4351 90.9872 83.4714 90.8987C83.5078 90.8103 83.5264 90.7156 83.5261 90.62C83.5321 89.7706 83.5321 88.9213 83.5261 88.0719C83.5222 87.9791 83.5385 87.8865 83.5741 87.8006C83.6096 87.7147 83.6635 87.6376 83.7319 87.5747C85.6054 85.7079 87.4765 83.8381 89.3452 81.9655C89.4527 81.8528 89.5776 81.7581 89.7152 81.6851C89.8561 81.6093 90.0174 81.5798 90.1761 81.6008C90.3348 81.6218 90.4828 81.6922 90.5992 81.8021C90.6569 81.8544 90.7103 81.9109 90.7653 81.9659C92.2466 83.4478 93.727 84.9283 95.2064 86.4076C95.6146 86.8151 95.9861 87.2569 96.4094 87.65C96.5205 87.7533 96.5408 87.8789 96.5408 88.0205C96.5384 88.8827 96.5369 89.7449 96.5408 90.6075C96.5427 91.0041 96.8242 91.3157 97.1972 91.3484C97.2975 91.3587 97.3989 91.3479 97.4948 91.3167C97.5907 91.2856 97.6791 91.2348 97.7543 91.1676C97.8295 91.1003 97.8899 91.0182 97.9316 90.9263C97.9732 90.8344 97.9953 90.7349 97.9963 90.634C98.0041 90.3099 97.9963 89.9855 97.9983 89.6614C97.9983 89.6096 97.9963 89.5577 98.0014 89.5054C98.0057 89.4606 98.0049 89.4083 98.0497 89.3846C98.1066 89.3541 98.1487 89.3994 98.185 89.4329C98.3573 89.5889 98.5124 89.7659 98.6847 89.9231C98.9896 90.2011 99.3724 90.2202 99.6753 89.98C99.7637 89.9094 99.8203 89.8159 99.8787 89.7223C99.9064 89.677 99.9088 89.6018 99.991 89.61V93.5794C99.9037 93.5774 99.899 93.4987 99.8741 93.4452C99.7322 93.1645 99.5076 93.0163 99.1915 93.0163C98.3499 93.0136 97.5083 93.0108 96.6667 93.0163C96.2414 93.0194 95.9303 93.3306 95.9307 93.7334C95.9311 94.1363 96.2426 94.4428 96.6647 94.4549C96.7747 94.458 96.8846 94.4549 96.9949 94.4584C97.1384 94.4623 97.2066 94.5364 97.2089 94.6767C97.2089 94.7481 97.2112 94.8195 97.2112 94.8904C97.2112 96.283 97.2167 97.6752 97.2077 99.0677C97.2054 99.4316 97.3122 99.7135 97.6459 99.8866C97.6895 99.9093 97.743 99.9311 97.7375 99.9978H94.8548C94.8548 99.91 94.9355 99.9061 94.9889 99.8808C95.2782 99.7353 95.4204 99.5025 95.4204 99.1789C95.4204 97.8187 95.4306 96.4581 95.4173 95.0975C95.4037 93.7022 93.9809 92.6797 92.6497 93.1025C92.4423 93.168 92.2626 93.1769 92.0521 93.0982C91.5979 92.9289 91.1426 93.2425 91.1037 93.7248C91.0986 93.7892 91.1002 93.8543 91.1002 93.9198C91.1002 95.6431 91.1041 97.3663 91.097 99.0896C91.097 99.4479 91.2101 99.7197 91.5352 99.8894C91.5785 99.912 91.6326 99.933 91.6268 100H88.3212C88.3418 99.8898 88.4354 99.9174 88.5044 99.9077C88.9043 99.8515 89.2961 99.7673 89.6528 99.5669C89.8001 99.4838 89.9412 99.3922 90.0403 99.2494C90.1322 99.1184 90.1787 98.9609 90.1726 98.801C90.1665 98.6411 90.1083 98.4875 90.0067 98.3638C89.7982 98.115 89.4349 98.0129 89.1433 98.1817C88.7808 98.3896 88.3921 98.4473 87.991 98.4886C87.5189 98.5374 87.11 98.2617 87.0126 97.8187C86.9654 97.6046 87.0099 97.5426 87.2262 97.5371C87.4425 97.5317 87.6667 97.5371 87.8889 97.5371C89.4158 97.5371 90.4807 96.1652 90.1003 94.6904C89.85 93.7233 88.9355 93.0245 87.9388 93.0058C87.1592 92.9929 86.5195 93.2631 86.0314 93.8691C85.7196 94.2591 85.5391 94.7068 85.5364 95.2118C85.5317 96.0221 85.5364 96.8325 85.5364 97.6428C85.5339 98.1563 85.7028 98.656 86.0163 99.0627C86.3298 99.4693 86.77 99.7597 87.2671 99.8878C87.3396 99.9057 87.4445 99.8831 87.4659 99.9986Z" fill="white"/>
<path d="M99.9726 47.8457C99.4913 48.7108 99.0823 49.6072 98.1803 50.1748C96.5994 51.1534 94.7112 50.9577 93.2672 49.619C92.7683 49.1531 92.2987 48.656 91.8174 48.1706C91.336 47.6852 90.8606 47.192 90.2129 46.5402V49.4761C90.2129 50.6504 90.2266 51.8247 90.2129 52.9991C90.2047 54.0151 89.7961 54.9868 89.0758 55.7032C88.3556 56.4197 87.3819 56.8229 86.3662 56.8255C84.1748 56.845 82.4255 55.199 82.4118 53.0147C82.3825 48.4935 82.3923 43.9704 82.4118 39.4492C82.4231 39.2112 82.3822 38.9737 82.292 38.7532C82.2017 38.5328 82.0643 38.3348 81.8894 38.1731C72.2758 28.5109 62.6688 18.8415 53.0682 9.16498C51.3073 7.38977 49.063 7.36824 47.2981 9.12583C37.5541 18.8389 27.8127 28.5598 18.0739 38.2886C17.9044 38.4546 17.7734 38.6558 17.6899 38.878C17.6064 39.1001 17.5725 39.3378 17.5906 39.5744C17.6037 44.033 17.6037 48.4903 17.5906 52.9462C17.5906 54.9524 16.0938 56.6278 14.1959 56.8235C12.1238 57.0369 10.2454 55.7607 9.86976 53.7526C9.7054 52.8699 9.79736 51.9383 9.79149 51.0282C9.78171 49.6287 9.79149 48.2313 9.79149 46.5852C8.75056 47.6245 7.83486 48.5425 6.91916 49.4545C6.11107 50.2609 5.18167 50.7933 3.99791 50.7855C2.3876 50.7737 1.17644 50.0672 0.454447 48.6462C-0.26755 47.2253 -0.116889 45.8102 0.818381 44.5165C1.07815 44.183 1.36337 43.8702 1.67147 43.5809C15.0431 30.2248 28.4173 16.8712 41.7941 3.52033C46.5057 -1.17702 53.8705 -1.17702 58.5566 3.54186C71.8617 16.9254 85.1622 30.3076 98.4582 43.6885C99.1216 44.3772 99.637 45.1945 99.9726 46.0901V47.8457Z" fill="#43444E"/>
<path d="M2.95889 99.9804C1.66555 99.3834 0.563971 98.6103 0.164818 97.1248C0.0664615 96.7161 0.0223841 96.2963 0.033724 95.8761C0.033724 86.8311 0.033724 77.7867 0.033724 68.743C0.033724 66.2749 1.6499 64.6504 4.09373 64.6328C6.40256 64.6328 8.71334 64.6328 11.0222 64.6328C16.3892 64.6426 20.8699 67.8877 22.3921 72.8688C23.9144 77.85 21.9656 83.0699 17.5104 86.0429L17.0212 86.3678C18.6824 88.7635 20.3259 91.1474 21.9852 93.5215C22.8833 94.8055 23.1591 96.152 22.5506 97.6454C22.0223 98.9274 20.9345 99.5028 19.7468 99.9745H17.9858C16.7003 99.7788 15.859 98.9959 15.1604 97.9644C13.151 94.966 11.0515 92.0301 8.99705 89.063C8.81704 88.8026 8.69964 88.4758 8.3181 88.3329C7.99917 88.5913 8.09896 88.967 8.097 89.2939C8.08526 91.5388 8.097 93.7818 8.097 96.0268C8.097 97.3968 7.52762 98.4577 6.51409 99.3404C5.98775 99.8003 5.33032 99.8023 4.71986 99.9745L2.95889 99.9804Z" fill="#4679BD"/>
<path d="M37.1178 99.9804C35.5995 99.4813 34.0303 99.1212 32.6685 98.2091C29.1896 95.8819 27.2525 92.6682 27.1801 88.4601C27.1116 84.4909 27.1586 80.5197 27.1645 76.5504C27.1645 69.794 32.1774 64.715 38.9042 64.6113C46.046 64.5056 51.4854 70.2873 50.9493 77.4037C50.5286 83.0053 45.4707 87.7771 39.865 87.8612C38.4327 87.8827 37.0004 87.8945 35.5701 87.8612C35.0262 87.8475 34.9245 88.0217 34.9832 88.5247C35.2493 90.7931 37.0807 92.312 39.3758 92.1358C41.4811 91.9753 43.5239 91.717 45.4296 90.6033C47.1808 89.5797 49.3683 90.3469 50.4092 92.083C50.9142 92.908 51.0926 93.892 50.9094 94.8419C50.7262 95.7918 50.1947 96.6388 49.4192 97.2168C47.3158 98.8354 44.8485 99.4363 42.2873 99.7847C41.9918 99.8258 41.6318 99.63 41.4029 99.9804H37.1178Z" fill="#36A052"/>
<path d="M58.0048 99.9806C56.7115 99.3836 55.6099 98.6105 55.2108 97.123C55.1123 96.7144 55.0682 96.2945 55.0797 95.8743C55.0797 86.8926 55.1266 77.9109 55.0484 68.9291C55.0229 65.8093 58.3394 63.6935 61.0435 65.4061C61.4113 65.641 61.6853 65.551 62.0218 65.4198C68.51 62.9361 75.3171 66.4415 77.0233 73.1391C77.2445 74.0552 77.349 74.9956 77.3344 75.938C77.3226 82.3812 77.3226 88.825 77.3344 95.2695C77.3344 97.9764 76.6554 99 74.2038 99.9669H72.4428C70.2905 99.4365 69.2378 98.1251 69.232 95.8567C69.2124 89.4526 69.232 83.0486 69.232 76.6445C69.232 75.5524 69.1283 74.5092 68.285 73.6734C66.6473 72.0529 64.0508 72.6948 63.366 74.9085C63.1703 75.5387 63.1703 76.1904 63.1703 76.8402V94.7841C63.1703 95.1423 63.1703 95.5005 63.1703 95.8567C63.1312 98.2171 62.0453 99.5265 59.758 99.9669L58.0048 99.9806Z" fill="#F1B719"/>
<path d="M88.6515 99.9806C87.319 99.3738 86.2096 98.5635 85.8242 97.0447C85.7251 96.5357 85.691 96.0162 85.7224 95.4985C85.7224 88.5099 85.7224 81.52 85.7224 74.5288C85.7224 72.458 85.7224 72.4619 83.6914 72.4561C83.1045 72.4561 82.537 72.4678 81.9637 72.2721C81.0763 71.978 80.3219 71.3786 79.8347 70.5805C79.3475 69.7824 79.159 68.8373 79.3027 67.9133C79.4488 67.009 79.9092 66.1853 80.6029 65.5874C81.2966 64.9894 82.179 64.6556 83.0947 64.6447C87.4501 64.6252 91.8056 64.6154 96.1591 64.6447C98.2194 64.6604 99.3347 65.9424 99.9726 67.7567V69.5183C99.4423 71.6712 98.1333 72.7046 95.8636 72.7359C93.7114 72.7653 93.8248 72.5069 93.8248 74.8126V94.7959C93.8248 95.1208 93.8248 95.4457 93.8248 95.7745C93.7955 98.223 92.735 99.5304 90.4105 99.9825L88.6515 99.9806Z" fill="#DD4335"/>
<path d="M59.7561 99.9805C62.196 99.0018 62.8867 97.9802 62.8867 95.2831C62.8867 88.9117 62.8867 82.5409 62.8867 76.1708C62.8867 74.4367 63.6694 73.184 65.0194 72.6673C67.2441 71.8179 69.4845 73.4502 69.5197 75.9946C69.553 78.8874 69.5197 81.7802 69.5197 84.6749C69.5197 88.1196 69.6117 91.5683 69.4884 95.0091C69.4023 97.395 70.1947 99.0801 72.4468 99.9883L59.7561 99.9805Z" fill="white"/>
<path d="M90.4086 99.9804C92.8544 99.0018 93.5294 97.984 93.5392 95.2831C93.5392 87.9669 93.5509 80.6488 93.5196 73.3327C93.5196 72.6027 93.6898 72.3169 94.4197 72.4481C94.5762 72.4774 94.7445 72.4481 94.9049 72.4481C97.3116 72.7084 99.0491 71.812 99.9804 69.5122C99.9804 79.404 99.9869 89.2972 100 99.1916C100 99.861 99.8689 100.004 99.1997 99.9922C96.2648 99.953 93.3357 99.9804 90.4086 99.9804Z" fill="white"/>
<path d="M4.71594 99.9804C7.16564 99.0018 7.84655 97.9938 7.84655 95.2831C7.84655 93.0401 7.84655 90.7951 7.85829 88.5502C7.85829 88.3212 7.63132 87.9317 8.13613 87.8749C8.50594 87.8319 8.68399 88.0041 8.89531 88.3153C11.1513 91.6426 13.4406 94.9523 15.7103 98.2737C16.2816 99.1114 17.1601 99.5126 17.9956 99.9804H4.71594Z" fill="white"/>
<path d="M7.83872 76.1962C7.83872 75.1236 7.83872 74.0433 7.83872 72.9785C7.83872 72.7319 7.7585 72.4266 8.187 72.4481C9.51164 72.5166 10.85 72.2915 12.1648 72.6164C12.9876 72.8091 13.7207 73.2749 14.2448 73.938C14.7688 74.601 15.0527 75.4222 15.0502 76.2674C15.0477 77.1126 14.7589 77.9321 14.231 78.592C13.7031 79.252 12.9672 79.7135 12.1433 79.9012C10.8598 80.2144 9.55468 79.9893 8.26135 80.0696C7.79763 80.097 7.83285 79.8132 7.8348 79.5098C7.84067 78.4059 7.83872 77.3079 7.83872 76.1962Z" fill="white"/>
<path d="M37.3995 80.0147C36.6169 80.0147 35.5916 80.3181 35.1455 79.9364C34.6153 79.4823 35.0242 78.4176 34.9772 77.621C34.9466 77.1648 34.9466 76.7071 34.9772 76.2509C35.1416 74.0804 36.6952 72.5322 38.7809 72.4383C41.0252 72.3404 42.6942 73.6439 43.0855 75.7929C43.4025 77.5545 42.1835 79.3747 40.3873 79.864C39.4071 80.1419 38.4013 80.048 37.3995 80.0147Z" fill="white"/>
</svg>
